<?xml version="1.0" encoding="UTF-8" standalone="no"?>
<!DOCTYPE svg PUBLIC "-//W3C//DTD SVG 1.1//EN" "http://www.w3.org/Graphics/SVG/1.1/DTD/svg11.dtd">

<!-- Created with Vectornator (http://vectornator.io/) -->
<svg height="100%" stroke-miterlimit="10" style="fill-rule:nonzero;clip-rule:evenodd;stroke-linecap:round;stroke-linejoin:round;" version="1.1" viewBox="0 0 1024 1024" width="100%" xml:space="preserve" xmlns="http://www.w3.org/2000/svg" xmlns:vectornator="http://vectornator.io" xmlns:xlink="http://www.w3.org/1999/xlink">
<metadata>
<vectornator:setting key="IsTimeLapseWatermarkDisabled" value="false"/>
<vectornator:setting key="UndoHistoryDisabled" value="true"/>
<vectornator:setting key="VNDimensionsVisible" value="true"/>
<vectornator:setting key="VNSnapToGuides" value="true"/>
<vectornator:setting key="WDCMYKEnabledKey" value="false"/>
<vectornator:setting key="WDDisplayWhiteBackground" value="false"/>
<vectornator:setting key="WDDynamicGuides" value="false"/>
<vectornator:setting key="WDGuidesVisible" value="true"/>
<vectornator:setting key="WDIsolateActiveLayer" value="false"/>
<vectornator:setting key="WDOutlineMode" value="false"/>
<vectornator:setting key="WDRulersVisible" value="true"/>
<vectornator:setting key="WDSnapToEdges" value="false"/>
<vectornator:setting key="WDSnapToGrid" value="false"/>
<vectornator:setting key="WDSnapToPoints" value="false"/>
<vectornator:setting key="WDUnits" value="Pixels"/>
</metadata>
<defs>
<path d="M853.794 383.936L853.794 383.936C853.794 336.683 853.876 286.758 853.794 239.504C853.774 227.842 850.413 222.401 838.385 221.875C829.963 221.524 821.562 220.704 813.14 220.548C775.477 219.749 737.938 212.533 701.771 203.328C631.487 185.367 576.161 157.596 522.822 112.137C519.769 109.523 512.249 103.887 509.216 103.38L509.216 922.466C517.208 921.256 613.475 849.938 660.297 817.642C697.939 791.685 735.93 766.196 765.806 732.282C823.426 666.891 852.565 593.232 854.02 509.12C854.819 467.015 853.794 426.08 853.794 383.936Z" fill-rule="evenodd" id="Fill"/>
<linearGradient gradientTransform="matrix(2.15011 0 0 2.04633 -541.955 -594.59)" gradientUnits="userSpaceOnUse" id="LinearGradient" x1="325.371" x2="658.927" y1="541.219" y2="541.219">
<stop offset="0" stop-color="#0000f2"/>
<stop offset="1" stop-color="#000000"/>
</linearGradient>
<path d="M560.789 360.605L838.709 360.605L838.709 360.605L838.709 552.392L838.709 552.392L560.789 552.392L560.789 552.392L560.789 360.605L560.789 360.605Z" fill-rule="evenodd" id="Fill_2"/>
</defs>
<g id="Layer-1" vectornator:layerName="Layer 1">
<path d="M516.511 16.9082C451.288 75.0633 372.193 115.842 274.942 141.448C224.35 154.788 176.523 161.769 128.8 162.764C123.144 162.881 117.509 163.271 111.874 163.641C109.415 163.798 106.956 163.973 104.497 164.11C104.436 208.009 104.436 251.908 104.456 295.807L104.456 338.692C104.579 339.745 104.661 340.817 104.661 341.929C104.661 358.896 104.579 375.863 104.518 392.829C104.354 429.747 104.19 467.912 104.846 505.298C106.546 604.914 142.775 696.788 212.506 778.385C246.07 817.662 288.446 847.734 333.342 879.581L340.104 884.398C382.11 914.255 423.994 944.23 465.878 974.204L516.368 1010.32C540.014 993.375 563.723 976.506 587.431 959.617C640.195 922.056 694.763 883.227 747.63 844.223C836.807 778.463 894.51 690.781 919.099 583.579C928.238 543.736 928.177 503.191 928.136 460.248L928.136 457.401C928.054 387.057 928.013 316.713 927.992 246.35L927.951 164.48C790.231 160.853 674.497 127.134 574.194 61.4509C556.53 49.8862 540.609 36.7223 525.199 24.0265C522.29 21.6667 519.4 19.2874 516.511 16.9082" fill="#472b29" fill-rule="evenodd" opacity="1" stroke="none"/>
<path d="M516.429 1025.83C516.9 1025.83 518.95 1025.51 524.38 1021.65C547.965 1004.74 571.612 987.914 595.238 971.084C648.31 933.289 703.185 894.266 756.38 855.008C848.282 787.239 907.747 696.925 933.074 586.485C942.541 545.199 942.479 503.913 942.438 460.189L942.254 160.755C942.254 154.554 941.803 152.077 941.516 151.16C941.455 151.277 941.189 151.316 940.676 151.316C939.406 151.316 936.619 151.024 931.66 150.907C795.354 147.845 681.075 114.886 582.267 50.2177C565.3 39.1016 549.707 26.2302 534.646 13.7684L522.187 3.54937C517.946 0.0975101 515.937 0 515.732 0C515.097 0 513.601 0.663069 511.532 2.57427C447.108 61.5094 368.484 102.639 271.131 128.265C222.444 141.097 174.433 148.118 128.492 149.093C122.673 149.21 116.833 149.6 110.993 149.99C106.341 150.302 101.71 150.595 97.0385 150.79C92.6534 150.985 91.0756 151.609 90.7272 151.784C90.8297 151.862 90.1535 153.52 90.1535 158.181C90.0715 202.685 90.1125 339.608 90.1125 339.608C90.2355 340.349 90.3174 341.11 90.3174 341.89C90.3174 358.954 90.2355 376.019 90.1535 393.063C89.9896 430.566 89.8051 468.029 90.4813 505.493C92.2436 608.288 129.558 702.99 201.359 786.985C236.05 827.588 279.163 858.167 324.817 890.56L331.497 895.319C373.483 925.176 415.367 955.132 457.251 985.106L507.864 1021.3C513.704 1025.49 515.876 1025.83 516.429 1025.83Z" fill="#0022ff" fill-rule="evenodd" opacity="1" stroke="none"/>
<path d="M157.877 373.561C157.877 418.065 157.241 462.569 157.999 507.053C159.516 595.885 191.912 674.185 250.865 743.242C281.438 779.087 320.371 805.999 358.873 833.419C406.802 867.548 454.567 901.852 502.413 936.078C513.294 943.859 519.278 943.937 529.871 936.331C592.922 891.106 656.486 846.505 718.861 800.48C797.3 742.559 845.946 666.872 866.949 575.271C875.105 539.699 874.879 503.737 874.818 467.698C874.716 387.115 874.716 306.552 874.695 225.97C874.695 209.998 871.58 207.209 854.675 206.838C754.044 204.576 660.051 181.427 576.632 126.763C559.665 115.647 544.379 102.21 528.683 89.4362C519.974 82.3765 512.249 81.8305 504.319 89.0852C450.346 138.523 385.573 169.843 313.609 188.799C276.622 198.55 238.898 204.557 200.355 205.376C191.748 205.571 183.163 206.429 174.515 206.78C162.221 207.307 157.754 211.558 157.754 223.864C157.672 273.769 157.733 323.675 157.733 373.581C157.774 373.561 157.836 373.561 157.877 373.561Z" fill="#77cbd2" fill-rule="evenodd" opacity="1" stroke="none"/>
<g opacity="0.516625" vectornator:mask="#Fill">
<clipPath id="ClipPath">
<use overflow="#visible" xlink:href="#Fill"/>
</clipPath>
<g clip-path="url(#ClipPath)">
<path d="M240.312 448.878L178.368 392.478L695.296-78.0667L757.24-21.6668L240.312 448.878ZM331.456 617.2L269.512 560.8L786.44 90.2358L848.405 146.655L331.456 617.2ZM422.642 785.503L360.656 729.103L877.605 258.538L939.549 314.958L422.642 785.503ZM519.974 961.548L457.989 905.148L974.937 434.603L1036.88 491.003L519.974 961.548Z" fill="#00a5a5" fill-rule="evenodd" opacity="1" stroke="none"/>
</g>
</g>
<path d="M516.224 922.466C521.88 922.466 526.47 918.097 526.47 912.715L526.47 444.666C526.47 439.283 521.88 434.915 516.224 434.915C510.569 434.915 505.979 439.283 505.979 444.666L505.979 912.715C505.979 918.097 510.569 922.466 516.224 922.466Z" fill="#000000" fill-rule="evenodd" opacity="1" stroke="none"/>
<path d="M516.224 298.401C521.88 298.401 526.47 294.032 526.47 288.65L526.47 161.886C526.47 156.504 521.88 152.135 516.224 152.135C510.569 152.135 505.979 156.504 505.979 161.886L505.979 288.65C505.979 294.032 510.569 298.401 516.224 298.401Z" fill="#000000" fill-rule="evenodd" opacity="1" stroke="none"/>
<path d="M516.224 395.911C521.88 395.911 526.47 391.542 526.47 386.16L526.47 327.654C526.47 322.271 521.88 317.903 516.224 317.903C510.569 317.903 505.979 322.271 505.979 327.654L505.979 386.16C505.979 391.542 510.569 395.911 516.224 395.911Z" fill="#000000" fill-rule="evenodd" opacity="1" stroke="none"/>
<path d="M516.368 105.077C463.255 153.052 398.688 186.595 319.08 207.58C278.159 218.384 239.472 224.02 200.826 224.858C196.256 224.956 191.707 225.268 187.138 225.58C184.167 225.775 181.195 225.97 178.224 226.126C178.183 260.996 178.183 295.865 178.204 330.735L178.204 354.059L178.368 354.059L178.368 373.561C178.368 387.505 178.306 401.449 178.245 415.374C178.101 445.348 177.978 476.357 178.491 506.741C179.884 588.532 209.596 663.986 266.766 730.956C294.183 763.075 328.67 787.609 365.205 813.586L371.148 817.818C403.114 840.577 435.018 863.413 466.923 886.27L514.728 920.496C515.364 920.944 515.896 921.315 516.347 921.607C516.696 921.373 517.085 921.1 517.536 920.788C536.654 907.059 555.834 893.408 575.013 879.737C618.249 848.923 662.981 817.077 706.299 785.093C779.432 731.092 826.746 659.11 846.93 571.136C854.45 538.354 854.388 505.142 854.327 469.979L854.327 467.717C854.245 403.107 854.224 338.516 854.204 273.925L854.183 226.321L854.183 226.321C741.483 223.786 646.896 196.463 565.014 142.813C550.711 133.452 537.74 122.726 525.22 112.351C522.269 109.913 519.318 107.476 516.368 105.077M515.814 83.8782C519.954 83.8782 524.175 85.7894 528.662 89.4363C544.359 102.21 559.645 115.647 576.611 126.763C660.031 181.427 754.003 204.576 854.655 206.838C871.539 207.229 874.675 210.017 874.675 225.97C874.695 306.552 874.695 387.115 874.798 467.698C874.838 503.737 875.084 539.68 866.929 575.271C845.926 666.872 797.28 742.579 718.84 800.48C656.486 846.505 592.902 891.106 529.851 936.332C524.626 940.095 520.507 941.968 516.388 941.968C512.167 941.968 507.905 939.998 502.413 936.078C454.567 901.852 406.802 867.548 358.873 833.419C320.371 805.999 281.458 779.087 250.865 743.242C191.912 674.185 159.516 595.885 157.999 507.053C157.241 462.569 157.877 418.065 157.877 373.561C157.836 373.561 157.774 373.561 157.733 373.581C157.733 323.675 157.692 273.75 157.754 223.864C157.754 211.558 162.221 207.307 174.515 206.78C183.142 206.429 191.728 205.551 200.354 205.376C238.919 204.557 276.622 198.55 313.609 188.799C385.573 169.824 450.346 138.523 504.319 89.0852C508.151 85.5554 511.942 83.8782 515.814 83.8782L515.814 83.8782Z" fill="url(#LinearGradient)" fill-rule="evenodd" opacity="1" stroke="none"/>
<path d="M426.604 556.345L258.398 556.345C242.557 556.345 229.596 544.278 229.596 529.531L229.596 395.463C229.596 380.715 242.557 368.649 258.398 368.649L426.604 368.649C442.445 368.649 455.406 380.715 455.406 395.463L455.406 529.531C455.406 544.278 442.445 556.345 426.604 556.345Z" fill="#f7f7fb" fill-rule="evenodd" opacity="1" stroke="none"/>
<path d="M287.201 410.21C279.247 410.21 272.8 416.213 272.8 423.617C272.8 431.022 279.247 437.024 287.201 437.024C295.154 437.024 301.602 431.022 301.602 423.617C301.602 416.213 295.154 410.21 287.201 410.21ZM399.53 490.651C391.576 490.651 385.129 496.654 385.129 504.058C385.129 511.462 391.576 517.465 399.53 517.465C407.483 517.465 413.931 511.462 413.931 504.058C413.931 496.654 407.483 490.651 399.53 490.651Z" fill="#f6c138" fill-rule="evenodd" opacity="1" stroke="none"/>
<path d="M399.53 410.21C391.576 410.21 385.129 416.213 385.129 423.617C385.129 431.022 391.576 437.024 399.53 437.024C407.483 437.024 413.931 431.022 413.931 423.617C413.931 416.213 407.483 410.21 399.53 410.21ZM341.925 445.068C333.972 445.068 327.524 451.07 327.524 458.475C327.524 465.879 333.972 471.882 341.925 471.882C349.879 471.882 356.326 465.879 356.326 458.475C356.326 451.07 349.879 445.068 341.925 445.068Z" fill="#f1684e" fill-rule="evenodd" opacity="1" stroke="none"/>
<path d="M200.794 508.08C195.897 508.08 192.153 511.566 192.153 516.124C192.153 520.682 195.897 524.168 200.794 524.168L220.955 524.168L220.955 529.531C220.955 548.837 237.661 564.389 258.398 564.389L426.604 564.389C447.341 564.389 464.047 548.837 464.047 529.531L464.047 524.168L488.817 524.168C493.713 524.168 497.457 520.682 497.457 516.124C497.457 511.566 493.713 508.08 488.817 508.08L464.047 508.08L464.047 497.355L488.817 497.355C493.713 497.355 497.457 493.869 497.457 489.311C497.457 484.752 493.713 481.266 488.817 481.266L464.047 481.266L464.047 470.541L488.817 470.541C493.713 470.541 497.457 467.055 497.457 462.497C497.457 457.939 493.713 454.453 488.817 454.453L464.047 454.453L464.047 443.727L488.817 443.727C493.713 443.727 497.457 440.242 497.457 435.683C497.457 431.125 493.713 427.639 488.817 427.639L464.047 427.639L464.047 416.914L488.817 416.914C493.713 416.914 497.457 413.428 497.457 408.87C497.457 404.311 493.713 400.826 488.817 400.826L464.047 400.826L464.047 395.463C464.047 376.157 447.341 360.605 426.604 360.605L258.398 360.605C237.661 360.605 220.955 376.157 220.955 395.463L220.955 400.826L200.794 400.826C195.897 400.826 192.153 404.311 192.153 408.87C192.153 413.428 195.897 416.914 200.794 416.914L220.955 416.914L220.955 427.639L200.794 427.639C195.897 427.639 192.153 431.125 192.153 435.683C192.153 440.242 195.897 443.727 200.794 443.727L220.955 443.727L220.955 454.453L200.794 454.453C195.897 454.453 192.153 457.939 192.153 462.497C192.153 467.055 195.897 470.541 200.794 470.541L220.955 470.541L220.955 481.266L200.794 481.266C195.897 481.266 192.153 484.752 192.153 489.311C192.153 493.869 195.897 497.355 200.794 497.355L220.955 497.355L220.955 508.08L200.794 508.08ZM426.604 548.3L258.398 548.3C247.166 548.3 238.237 539.988 238.237 529.531L238.237 395.463C238.237 385.006 247.166 376.693 258.398 376.693L426.604 376.693C437.837 376.693 446.765 385.006 446.765 395.463L446.765 529.531C446.765 539.988 437.549 548.3 426.604 548.3Z" fill="#454b54" fill-rule="evenodd" opacity="1" stroke="none"/>
<path d="M399.53 482.607C390.601 482.607 382.536 487.434 378.792 494.673L295.841 494.673L295.841 443.459C304.482 440.242 310.243 432.466 310.243 423.617C310.243 411.819 299.874 402.166 287.201 402.166C274.528 402.166 264.159 411.819 264.159 423.617C264.159 432.466 269.919 440.242 278.56 443.459L278.56 502.717C278.56 507.276 282.304 510.761 287.201 510.761L377.64 510.761C380.808 519.342 389.449 525.509 399.53 525.509C412.203 525.509 422.572 515.856 422.572 504.058C422.572 492.26 412.203 482.607 399.53 482.607ZM399.53 498.695C402.698 498.695 405.29 501.109 405.29 504.058C405.29 507.007 402.698 509.421 399.53 509.421C396.361 509.421 393.769 507.007 393.769 504.058C393.769 501.109 396.361 498.695 399.53 498.695ZM287.201 418.254C290.369 418.254 292.961 420.668 292.961 423.617C292.961 426.567 290.369 428.98 287.201 428.98C284.033 428.98 281.44 426.567 281.44 423.617C281.44 420.668 284.033 418.254 287.201 418.254Z" fill="#454b54" fill-rule="evenodd" opacity="1" stroke="none"/>
<path d="M399.53 402.166C386.857 402.166 376.488 411.819 376.488 423.617C376.488 424.958 376.776 426.299 377.064 427.639L355.174 440.778C351.43 438.365 346.822 437.024 341.925 437.024C329.252 437.024 318.883 446.677 318.883 458.475C318.883 470.273 329.252 479.926 341.925 479.926C354.598 479.926 364.967 470.273 364.967 458.475C364.967 457.134 364.679 455.794 364.391 454.453L386.281 441.314C390.025 443.727 394.633 445.068 399.53 445.068C412.203 445.068 422.572 435.415 422.572 423.617C422.572 411.819 412.203 402.166 399.53 402.166ZM399.53 418.254C402.698 418.254 405.29 420.668 405.29 423.617C405.29 426.567 402.698 428.98 399.53 428.98C396.361 428.98 393.769 426.567 393.769 423.617C393.769 420.668 396.361 418.254 399.53 418.254ZM341.925 453.112C345.093 453.112 347.686 455.525 347.686 458.475C347.686 461.424 345.093 463.838 341.925 463.838C338.757 463.838 336.165 461.424 336.165 458.475C336.165 455.525 338.757 453.112 341.925 453.112Z" fill="#454b54" fill-rule="evenodd" opacity="1" stroke="none"/>
<g opacity="1" vectornator:mask="#Fill_2">
<clipPath id="ClipPath_2">
<use overflow="#visible" xlink:href="#Fill_2"/>
</clipPath>
<g clip-path="url(#ClipPath_2)">
<path d="M796.06 377.684C778.346 370.444 759.351 365.109 739.49 362.054C739.129 361.995 738.767 362.142 738.581 362.437C736.138 366.308 733.432 371.357 731.537 375.326C710.176 372.477 688.924 372.477 668 375.326C666.105 371.269 663.301 366.308 660.847 362.437C660.661 362.152 660.299 362.005 659.938 362.054C640.088 365.099 621.093 370.434 603.368 377.684C603.215 377.743 603.083 377.841 602.996 377.969C566.966 425.92 557.096 472.693 561.938 518.886C561.96 519.112 562.102 519.329 562.299 519.466C586.071 535.018 609.098 544.459 631.697 550.716C632.058 550.815 632.442 550.697 632.672 550.432C638.018 543.928 642.783 537.071 646.869 529.86C647.11 529.438 646.88 528.936 646.387 528.769C638.828 526.215 631.631 523.101 624.708 519.564C624.16 519.279 624.116 518.582 624.62 518.248C626.077 517.275 627.534 516.263 628.925 515.241C629.177 515.055 629.528 515.016 629.824 515.133C675.307 533.632 724.548 533.632 769.495 515.133C769.791 515.006 770.141 515.045 770.404 515.232C771.796 516.253 773.252 517.275 774.72 518.248C775.224 518.582 775.191 519.279 774.644 519.564C767.72 523.17 760.523 526.215 752.953 528.76C752.461 528.927 752.241 529.438 752.482 529.86C756.656 537.061 761.421 543.918 766.669 550.422C766.888 550.697 767.282 550.815 767.644 550.716C790.352 544.459 813.379 535.018 837.15 519.466C837.359 519.329 837.49 519.122 837.512 518.896C843.307 465.492 827.806 419.103 796.421 377.979C796.344 377.841 796.213 377.743 796.06 377.684ZM653.661 490.76C639.967 490.76 628.684 479.56 628.684 465.807C628.684 452.053 639.749 440.853 653.661 440.853C667.683 440.853 678.857 452.151 678.637 465.807C678.637 479.56 667.573 490.76 653.661 490.76ZM746.008 490.76C732.315 490.76 721.032 479.56 721.032 465.807C721.032 452.053 732.096 440.853 746.008 440.853C760.03 440.853 771.204 452.151 770.985 465.807C770.985 479.56 760.03 490.76 746.008 490.76Z" fill="#5865f2" fill-rule="evenodd" opacity="1" stroke="none"/>
</g>
</g>
</g>
</svg>
